<svg xmlns="http://www.w3.org/2000/svg" width="65" height="65" viewBox="0 0 65 65">
                        <polygon points="61.09 4.08 58.53 16.89 17.54 57.88 7.29 47.63 48.28 6.64 61.09 4.08" fill="none" stroke="#f69435" stroke-linecap="round" stroke-linejoin="round" stroke-width="2.54"></polygon>
                        <line x1="49.57" y1="7.92" x2="58.53" y2="16.88" fill="none" stroke="#f69435" stroke-linecap="round" stroke-linejoin="round" stroke-width="2.54"></line>
                        <line x1="48.28" y1="16.88" x2="17.54" y2="47.63" fill="none" stroke="#f69435" stroke-linecap="round" stroke-linejoin="round" stroke-width="2.54"></line>
                        <path d="M7.29,47.63l-1.35,1.8a4.78,4.78,0,0,0,.45,6.26l3.09,3.09a4.78,4.78,0,0,0,6.26.45l1.8-1.35" fill="none" stroke="#f69435" stroke-linecap="round" stroke-linejoin="round" stroke-width="2.54"></path>
                        <path d="M32,22.61l-6.79-7L24.11,7.8a3.25,3.25,0,0,0-1.17-2.06,16.89,16.89,0,0,0-5.4-2.95,17.15,17.15,0,0,0-10.25,0L15,8.27c.75.53,1.3.93.59,2.36L12.39,15.1a2.4,2.4,0,0,1-3.15.7l-7.07-4V15.3a4.35,4.35,0,0,0,1,2.8l4,4.83a4.55,4.55,0,0,0,3.5,1.64h6.83l5.12,5.12" fill="none" stroke="#f69435" stroke-linecap="round" stroke-linejoin="round" stroke-width="2.54"></path>
                        <line x1="38.03" y1="37.38" x2="44.44" y2="43.79" fill="none" stroke="#f69435" stroke-linecap="round" stroke-linejoin="round" stroke-width="2.54"></line>
                        <line x1="21.38" y1="20.73" x2="27.79" y2="27.14" fill="none" stroke="#f69435" stroke-linecap="round" stroke-linejoin="round" stroke-width="2.54"></line>
                        <path d="M42.24,33.18l6,6.76,10.25,1.28a16.43,16.43,0,0,1,2.56,3.85,16.79,16.79,0,0,1,1.28,3.84,22.34,22.34,0,0,1,0,9l-5.1-6A4.23,4.23,0,0,0,55,50.5a4.88,4.88,0,0,0-4.14,1,4.93,4.93,0,0,0-1.66,4.68l3.45,5.6a.82.82,0,0,1-.7,1.25H49.07a2.19,2.19,0,0,1-1.39-.5L40.6,56.6v-9L34.51,40.9" fill="none" stroke="#f69435" stroke-linecap="round" stroke-linejoin="round" stroke-width="2.54"></path>
                    </svg>