<svg xmlns="http://www.w3.org/2000/svg" width="65" height="65" viewBox="0 0 65 65">
                        <line x1="8.76" y1="26.98" x2="26.43" y2="26.98" fill="none" stroke="#f69435" stroke-linecap="round" stroke-linejoin="round" stroke-width="2.21"></line>
                        <line x1="2.14" y1="34.71" x2="19.8" y2="34.71" fill="none" stroke="#f69435" stroke-linecap="round" stroke-linejoin="round" stroke-width="2.21"></line>
                        <line x1="7.66" y1="43.54" x2="25.32" y2="43.54" fill="none" stroke="#f69435" stroke-linecap="round" stroke-linejoin="round" stroke-width="2.21"></line>
                        <polyline points="29.74 33.6 38.57 41.33 59.55 20.35" fill="none" stroke="#f69435" stroke-linecap="round" stroke-linejoin="round" stroke-width="2.21"></polyline>
                        <path d="M60.43,25.46a23.19,23.19,0,0,1-37,26.88" fill="none" stroke="#f69435" stroke-linecap="round" stroke-linejoin="round" stroke-width="2.21"></path>
                        <path d="M22.86,19.85A23.18,23.18,0,0,1,55.22,18.6" fill="none" stroke="#f69435" stroke-linecap="round" stroke-linejoin="round" stroke-width="2.21"></path>
                        <path d="M28.49,50.88A18.77,18.77,0,0,0,57.16,29" fill="none" stroke="#f69435" stroke-linecap="round" stroke-linejoin="round" stroke-width="2.21"></path>
                        <path d="M52.28,21.9a18.77,18.77,0,0,0-23.79-1.16" fill="none" stroke="#f69435" stroke-linecap="round" stroke-linejoin="round" stroke-width="2.21"></path>
                        <line x1="39.68" y1="6" x2="39.68" y2="11.52" fill="none" stroke="#f69435" stroke-linecap="round" stroke-linejoin="round" stroke-width="2.21"></line>
                        <line x1="35.26" y1="6" x2="44.09" y2="6" fill="none" stroke="#f69435" stroke-linecap="round" stroke-linejoin="round" stroke-width="2.21"></line>
                    </svg>