<svg xmlns="http://www.w3.org/2000/svg" width="200" height="60" viewBox="0 0 200 60"><polygon points="6.46 10.28 9.71 12.14 9.71 15.85 6.46 17.7 3.22 15.85 3.22 12.14 6.46 10.28" fill="#b2b2b2"></polygon><polygon points="1.92 2.92 3.87 4.04 3.87 6.26 1.92 7.37 -0.03 6.26 -0.03 4.04 1.92 2.92" fill="#b2b2b2"></polygon><polygon points="12.94 3.75 15.54 5.23 15.54 8.2 12.94 9.68 10.34 8.2 10.34 5.23 12.94 3.75" fill="#b2b2b2"></polygon><polygon points="27.24 6.18 22.23 9.04 22.23 9.04 22.23 12.01 19.63 13.49 17.04 12.01 17.04 12.01 13.6 13.97 13.6 15.85 14.9 15.11 18.15 16.96 18.15 20.67 14.9 22.52 13.6 21.78 13.6 29.55 27.24 37.34 40.87 29.55 40.87 13.97 27.24 6.18" fill="#b2b2b2"></polygon><path d="M196,27.69a6.73,6.73,0,0,1-3.28.84,6.41,6.41,0,0,1-5.59-3.2,6.37,6.37,0,0,1-.85-3.18H200a10,10,0,0,0-.57-3.41A7.72,7.72,0,0,0,197.88,16a7.06,7.06,0,0,0-2.39-1.72,8.34,8.34,0,0,0-7.14.44,7.26,7.26,0,0,0-2.76,2.92,9.13,9.13,0,0,0-.43,7.33,7.78,7.78,0,0,0,1.67,2.6,7.4,7.4,0,0,0,2.54,1.71,8.31,8.31,0,0,0,3.16.58,8.84,8.84,0,0,0,4.35-1.1,8,8,0,0,0,3.15-3l-1.33-.61A8.17,8.17,0,0,1,196,27.69ZM188.32,16.6a5.52,5.52,0,0,1,3.92-1.46,6.19,6.19,0,0,1,2.87.65,5.61,5.61,0,0,1,2.07,1.9,7.81,7.81,0,0,1,1.1,3h-12A7.12,7.12,0,0,1,188.32,16.6Zm-18.18,1.09a7.36,7.36,0,0,0-6.65-4,7.26,7.26,0,0,0-3.87,1.06,7.53,7.53,0,0,0-2.73,2.92,8.67,8.67,0,0,0-1,4.11,8.57,8.57,0,0,0,1,4.11,7.47,7.47,0,0,0,2.72,2.93,7.3,7.3,0,0,0,3.87,1.05,7.63,7.63,0,0,0,2-.27,7.28,7.28,0,0,0,1.84-.78,7.78,7.78,0,0,0,2.76-3,8.41,8.41,0,0,0,1-4.08A8.53,8.53,0,0,0,170.14,17.69Zm-1.5,7.46a5.76,5.76,0,0,1-2.11,2.36,5.83,5.83,0,0,1-6.06,0,6,6,0,0,1-2.1-2.35,7.38,7.38,0,0,1-.76-3.36,7.77,7.77,0,0,1,.44-2.61,6.15,6.15,0,0,1,1.26-2.11,5.43,5.43,0,0,1,1.89-1.38,5.56,5.56,0,0,1,2.29-.47,5.67,5.67,0,0,1,3.06.84,5.87,5.87,0,0,1,2.1,2.38,7.63,7.63,0,0,1,0,6.7Zm-35.76,4.28v-5.3h1.49a3.92,3.92,0,0,0,1.31,3.06,5,5,0,0,0,3.45,1.17,5.11,5.11,0,0,0,3.05-.86,2.57,2.57,0,0,0,1.21-2.18,2,2,0,0,0-1.1-2,16.37,16.37,0,0,0-3.58-1A11.14,11.14,0,0,1,135,21a3.19,3.19,0,0,1-1.25-2.87,3.73,3.73,0,0,1,.62-2.13,4.47,4.47,0,0,1,1.72-1.51,5.56,5.56,0,0,1,1.15-.4,6.09,6.09,0,0,1,1.3-.14,4.91,4.91,0,0,1,4.2,2h.08V14.12h1.43v5h-1.43a3.63,3.63,0,0,0-.15-1,4.34,4.34,0,0,0-.45-.95,3.77,3.77,0,0,0-1.5-1.38,4.51,4.51,0,0,0-2.12-.49,3.31,3.31,0,0,0-2.49.87,2.74,2.74,0,0,0-.84,1.94,1.77,1.77,0,0,0,1,1.81,18.78,18.78,0,0,0,3.58,1,10.61,10.61,0,0,1,3.81,1.38,3.3,3.3,0,0,1,1.27,2.94,3.88,3.88,0,0,1-.71,2.33,4.54,4.54,0,0,1-2,1.56,7.73,7.73,0,0,1-3.08.57,5.24,5.24,0,0,1-4.66-2.14h-.06v1.91Zm-10-2.14A5,5,0,0,1,119.27,26a5.61,5.61,0,0,1-1.68-3.43h12.87a10.14,10.14,0,0,0-.68-3.83,7.14,7.14,0,0,0-1.93-2.77,8.26,8.26,0,0,0-5.58-2.23A7.91,7.91,0,0,0,116.69,16a7.64,7.64,0,0,0-2.41,5.79,7.47,7.47,0,0,0,2.49,5.9,8.8,8.8,0,0,0,6,2.19,9.76,9.76,0,0,0,2.22-.26,10.07,10.07,0,0,0,2.11-.71,8,8,0,0,0,3.37-3l-2.66-1.17A5.84,5.84,0,0,1,122.83,27.29Zm-3.56-10a4.4,4.4,0,0,1,3.08-1.17,4.69,4.69,0,0,1,3.35,1.31,5.35,5.35,0,0,1,1.66,2.91h-9.65A5,5,0,0,1,119.27,17.31Zm-11.63-3.17v2.18a7.38,7.38,0,0,0-5.41-2.42A7.29,7.29,0,0,0,97,16.15,7.88,7.88,0,0,0,94.67,22a8,8,0,0,0,2.07,5.59,7.34,7.34,0,0,0,8.67,1.47,7.11,7.11,0,0,0,2.23-1.71v1.39c0,.49,0,.92,0,1.3a7,7,0,0,1-.11.85,3.64,3.64,0,0,1-.72,1.37,4.22,4.22,0,0,1-1.65,1.21,5.71,5.71,0,0,1-2.39.49,7,7,0,0,1-4.33-1.55l-2,2.18a9.77,9.77,0,0,0,6,2,9.88,9.88,0,0,0,4.06-.8,6.88,6.88,0,0,0,2.73-2,5.56,5.56,0,0,0,1.14-2.28,17.63,17.63,0,0,0,.24-3.41V16.81h2.75V14.14Zm-1.45,11.59a4.87,4.87,0,0,1-3.53,1.48,4.5,4.5,0,0,1-3.45-1.46,5.41,5.41,0,0,1-1.35-3.81,5.08,5.08,0,0,1,1.48-3.82,4.84,4.84,0,0,1,6.86,0,5,5,0,0,1,1.49,3.78A5.16,5.16,0,0,1,106.19,25.73Zm-54.25,1v-10H49.39V14.14h5.55v1.92a8.62,8.62,0,0,1,5.33-2.16,3.64,3.64,0,0,1,3.62,2.38,9.2,9.2,0,0,1,5.56-2.38,4.22,4.22,0,0,1,2.41.65,3.29,3.29,0,0,1,1.3,1.66,9.66,9.66,0,0,1,.35,3v7.58h2.67v2.67H70.5V19.71a9.38,9.38,0,0,0-.12-1.86,1.41,1.41,0,0,0-.59-.91,2,2,0,0,0-1.17-.35,7.36,7.36,0,0,0-4.37,2v8.2h2.62v2.67H61.24v-10a4,4,0,0,0-.44-2.16,1.61,1.61,0,0,0-1.47-.68c-1.13,0-2.6.66-4.39,2v8.2h2.69v2.67H49.2V26.76Zm120.73,2.67V28h2.91V15.58h-2.91V14.12h4.6v3.76h.06a6,6,0,0,1,1.55-2.32,6.33,6.33,0,0,1,2.4-1.34,5.87,5.87,0,0,1,1.31-.27c.44,0,1,0,1.76,0v1.61c-.83,0-1.51,0-2,.07a8.07,8.07,0,0,0-1.51.3,4.85,4.85,0,0,0-2.16,1.18A4.43,4.43,0,0,0,177.57,19a7.8,7.8,0,0,0-.22,1.2,10.77,10.77,0,0,0-.08,1.44V28h3.14v1.45Zm-81.8-2.67V19.68A12,12,0,0,0,90.65,17a3.94,3.94,0,0,0-.83-1.61,4.46,4.46,0,0,0-1.89-1.19,8.54,8.54,0,0,0-3-.46q-4.7,0-6.61,3.57l2.88.76a3.48,3.48,0,0,1,3.27-1.8,4.08,4.08,0,0,1,2.12.51,2.28,2.28,0,0,1,1,1.13,5.45,5.45,0,0,1,.22,1.8V21.2a7.64,7.64,0,0,0-4.15-1.3,5.76,5.76,0,0,0-3.94,1.42,4.66,4.66,0,0,0-.1,7,5.3,5.3,0,0,0,3.63,1.36,6.86,6.86,0,0,0,4.86-2.12v1.86h5.25V26.76Zm-3-1.23a5.91,5.91,0,0,1-4.12,1.83,3.39,3.39,0,0,1-1.15-.18,2.41,2.41,0,0,1-.86-.54A2.49,2.49,0,0,1,81,24.83,2.39,2.39,0,0,1,81.88,23,3.1,3.1,0,0,1,84,22.23a6.41,6.41,0,0,1,3.93,1.51Zm61.72-10H146.9V14.12h2.72V10.69l1.69-1.32v4.75h3.19v1.46h-3.19V26.26a3.73,3.73,0,0,0,.2,1.44,1.05,1.05,0,0,0,.9.55h.29a7.85,7.85,0,0,0,1.8-.28v1.45a7.48,7.48,0,0,1-2.18.35l-.39,0a2.36,2.36,0,0,1-1.7-.81,3,3,0,0,1-.61-2Z" fill="#242424"></path><polygon points="23.14 52.09 20.63 44.34 19.65 44.34 17.16 52.09 15.02 44.38 15.01 44.34 13.58 44.34 16.4 53.92 17.8 53.92 20.15 46.87 22.49 53.92 23.89 53.92 26.71 44.34 25.28 44.34 23.14 52.09" fill="#242424"></polygon><path d="M32.62,48.15a3.77,3.77,0,0,0-3.42,0,3.13,3.13,0,0,0,0,5.55,3.77,3.77,0,0,0,3.42,0,3,3,0,0,0,1.21-1.12,3.27,3.27,0,0,0,0-3.31A3,3,0,0,0,32.62,48.15ZM32,52.75a2.35,2.35,0,0,1-2.15,0A2,2,0,0,1,29.1,52a2.24,2.24,0,0,1,0-2.17,2,2,0,0,1,.74-.74,2.35,2.35,0,0,1,2.15,0,2,2,0,0,1,.74.74,2.24,2.24,0,0,1,0,2.17A2,2,0,0,1,32,52.75Z" fill="#242424"></path><path d="M40.06,47.81a3,3,0,0,0-.58-.07,2.06,2.06,0,0,0-1,.28,2.12,2.12,0,0,0-.66.61v-.7H36.54v6h1.23V50.16a1.11,1.11,0,0,1,.21-.64,1.59,1.59,0,0,1,.54-.49,1.37,1.37,0,0,1,.7-.19,2.27,2.27,0,0,1,.43,0,2.08,2.08,0,0,1,.4.15l.05,0,.52-1-.06,0A2.63,2.63,0,0,0,40.06,47.81Z" fill="#242424"></path><rect x="42.36" y="43.94" width="1.24" height="9.99" fill="#242424"></rect><path d="M51.15,48.85a2.69,2.69,0,0,0-.87-.77,3,3,0,0,0-2.91.08,3.06,3.06,0,0,0-1.07,1.13,3.6,3.6,0,0,0,0,3.28,3.06,3.06,0,0,0,1.07,1.13,2.9,2.9,0,0,0,1.51.41A2.73,2.73,0,0,0,51.15,53v1h1.24v-10H51.15Zm-.22,1a2.28,2.28,0,0,1,.25,1.09A2.21,2.21,0,0,1,50.93,52a1.9,1.9,0,0,1-.71.75,2.1,2.1,0,0,1-2.06,0,1.9,1.9,0,0,1-.71-.75,2.21,2.21,0,0,1-.25-1.08,2.17,2.17,0,0,1,.26-1.09,1.85,1.85,0,0,1,.7-.74,2,2,0,0,1,1-.27,2,2,0,0,1,1,.26A1.9,1.9,0,0,1,50.93,49.84Z" fill="#242424"></path><path d="M55.87,44.16a.78.78,0,0,0-.56.21.73.73,0,0,0-.21.54.71.71,0,0,0,.17.47.73.73,0,0,0,.38.24,1.59,1.59,0,0,1-.08.35,2.3,2.3,0,0,1-.17.39,1.42,1.42,0,0,1-.2.3l0,0,.36.31,0,0a3.21,3.21,0,0,0,.79-.93,2.12,2.12,0,0,0,.3-1,.89.89,0,0,0-.21-.63A.78.78,0,0,0,55.87,44.16Z" fill="#242424"></path><path d="M61.81,50.73a6.63,6.63,0,0,0-.87-.38l-.63-.26a2.19,2.19,0,0,1-.48-.3.55.55,0,0,1-.17-.41.64.64,0,0,1,.25-.52,1,1,0,0,1,.66-.21,1.72,1.72,0,0,1,1.27.62l.06,0,.52-.79,0,0a3.15,3.15,0,0,0-.87-.56,2.36,2.36,0,0,0-.94-.19A2.44,2.44,0,0,0,59.5,48a1.8,1.8,0,0,0-.75.6,1.53,1.53,0,0,0-.27.89,1.31,1.31,0,0,0,.23.78,1.78,1.78,0,0,0,.59.49,6,6,0,0,0,.72.35c.3.11.56.22.76.31a1.41,1.41,0,0,1,.44.3.65.65,0,0,1,.14.46,1,1,0,0,1-.14.53,1,1,0,0,1-.39.34,1.28,1.28,0,0,1-.56.12,1.63,1.63,0,0,1-.89-.27,2.41,2.41,0,0,1-.71-.77L58.62,52l-.61.79,0,0a2.35,2.35,0,0,0,.92.93,2.62,2.62,0,0,0,1.33.33,3,3,0,0,0,1.23-.24,2,2,0,0,0,.83-.69,2,2,0,0,0,.29-1.07,1.46,1.46,0,0,0-.22-.86A1.54,1.54,0,0,0,61.81,50.73Z" fill="#242424"></path><path d="M73.07,45.2h-1l-.35,2.53H70.33l.36-2.53h-1l-.36,2.53H68v1h1.25L69,50.42H67.66v1h1.18l-.36,2.54h1l.36-2.54h1.4l-.35,2.54h1l.36-2.54h1.26v-1H72.34l.25-1.73H73.8v-1H72.71Zm-1.46,3.49-.24,1.73H70l.24-1.73Z" fill="#242424"></path><polygon points="79.12 44.18 75.75 45.21 75.75 46.36 77.92 45.71 77.92 52.86 75.81 52.86 75.81 53.92 81.24 53.92 81.24 52.86 79.12 52.86 79.12 44.18" fill="#242424"></polygon><path d="M92.61,44.66A4,4,0,0,0,91,44.34H88.22v9.58h1.29V50H91a3.51,3.51,0,0,0,1.64-.36,2.56,2.56,0,0,0,1.1-1,2.93,2.93,0,0,0,.39-1.53,2.78,2.78,0,0,0-.39-1.51A2.51,2.51,0,0,0,92.61,44.66Zm-3.1.74h1.14a2.93,2.93,0,0,1,1.11.2,1.63,1.63,0,0,1,.74.59,1.66,1.66,0,0,1,.27,1,1.7,1.7,0,0,1-.27,1,1.72,1.72,0,0,1-.74.61,2.75,2.75,0,0,1-1.11.21H89.51Z" fill="#242424"></path><path d="M104.31,45.61a4.82,4.82,0,0,0-1.54-1.06,4.73,4.73,0,0,0-3.76,0,4.82,4.82,0,0,0-1.54,1.06,5.15,5.15,0,0,0-1,1.59,5.24,5.24,0,0,0,0,3.87,5.15,5.15,0,0,0,1,1.59A4.71,4.71,0,0,0,99,53.72a4.73,4.73,0,0,0,3.76,0,4.71,4.71,0,0,0,1.54-1.06,5.15,5.15,0,0,0,1-1.59,5.24,5.24,0,0,0,0-3.87A5.15,5.15,0,0,0,104.31,45.61Zm-3.42,7.25a3.41,3.41,0,0,1-1.36-.28,3.32,3.32,0,0,1-1.1-.79,3.56,3.56,0,0,1-.73-1.18,4.17,4.17,0,0,1-.26-1.47,4.22,4.22,0,0,1,.26-1.48,3.66,3.66,0,0,1,.73-1.18,3.47,3.47,0,0,1,1.1-.79,3.44,3.44,0,0,1,2.72,0,3.47,3.47,0,0,1,1.1.79,3.66,3.66,0,0,1,.73,1.18,4.22,4.22,0,0,1,.26,1.48,4.17,4.17,0,0,1-.26,1.47,3.56,3.56,0,0,1-.73,1.18,3.32,3.32,0,0,1-1.1.79A3.41,3.41,0,0,1,100.89,52.86Z" fill="#242424"></path><path d="M113.24,49.39a4.71,4.71,0,0,0-.93-.57c-.35-.16-.73-.32-1.12-.48-.21-.08-.43-.16-.63-.25a2.35,2.35,0,0,1-.54-.3,1.18,1.18,0,0,1-.38-.39,1.15,1.15,0,0,1-.14-.57,1.48,1.48,0,0,1,.73-1.27,1.7,1.7,0,0,1,.87-.21,2.58,2.58,0,0,1,.8.13,2.69,2.69,0,0,1,.65.35,2.57,2.57,0,0,1,.47.46l.06.07.61-1,0,0a2.66,2.66,0,0,0-.62-.57,3.91,3.91,0,0,0-.89-.45,3.11,3.11,0,0,0-1.06-.18,3,3,0,0,0-1.15.22,2.66,2.66,0,0,0-.9.59,2.62,2.62,0,0,0-.58.85,2.52,2.52,0,0,0-.21,1,2.13,2.13,0,0,0,.2.94,2.29,2.29,0,0,0,.51.68,3.28,3.28,0,0,0,.69.48c.25.12.49.24.73.33s.65.26.94.39a4.77,4.77,0,0,1,.75.42,1.51,1.51,0,0,1,.49.52,1.45,1.45,0,0,1,.18.74,1.41,1.41,0,0,1-.25.86,1.54,1.54,0,0,1-.65.53,2.43,2.43,0,0,1-.92.17,2.61,2.61,0,0,1-1-.16,3,3,0,0,1-.75-.42,3.29,3.29,0,0,1-.54-.5c-.15-.16-.27-.3-.36-.41l0-.06-.71,1,0,0,.38.44a4.42,4.42,0,0,0,.67.57,4,4,0,0,0,1,.5,4,4,0,0,0,1.29.2,3.92,3.92,0,0,0,1.65-.33,2.76,2.76,0,0,0,1.15-1,2.67,2.67,0,0,0,.42-1.51,2.39,2.39,0,0,0-.87-1.93Z" fill="#242424"></path><path d="M122.7,43.87a2.22,2.22,0,0,0-.69-.11,1.84,1.84,0,0,0-1,.28,1.77,1.77,0,0,0-.63.8,3.28,3.28,0,0,0-.21,1.24v1.85h-.65v1h.65v5h1.24v-5h1.46v-1H121.4V46.07a2.1,2.1,0,0,1,.08-.65.75.75,0,0,1,.26-.41.72.72,0,0,1,.46-.14,1,1,0,0,1,.61.18l.06.05.45-.91,0,0A1.86,1.86,0,0,0,122.7,43.87Z" fill="#242424"></path><path d="M129.45,48.15a3.64,3.64,0,0,0-1.72-.41,3.6,3.6,0,0,0-1.71.41,3.1,3.1,0,0,0-1.21,1.12,3.27,3.27,0,0,0,0,3.31A3.1,3.1,0,0,0,126,53.7a3.6,3.6,0,0,0,1.71.41,3.64,3.64,0,0,0,1.72-.41,3.1,3.1,0,0,0,1.21-1.12,3.27,3.27,0,0,0,0-3.31A3.1,3.1,0,0,0,129.45,48.15Zm-.64,4.6a2.2,2.2,0,0,1-1.07.26,2.27,2.27,0,0,1-1.08-.26,2,2,0,0,1-.74-.74,2.32,2.32,0,0,1,0-2.17,2,2,0,0,1,.74-.74,2.27,2.27,0,0,1,1.08-.26,2.2,2.2,0,0,1,1.07.26,2.13,2.13,0,0,1,.75.74,2.32,2.32,0,0,1,0,2.17A2.13,2.13,0,0,1,128.81,52.75Z" fill="#242424"></path><path d="M136.88,47.81a2.86,2.86,0,0,0-.57-.07,2,2,0,0,0-1.71.89v-.7h-1.24v6h1.24V50.16a1.18,1.18,0,0,1,.2-.64,1.59,1.59,0,0,1,.54-.49,1.37,1.37,0,0,1,.7-.19,2.18,2.18,0,0,1,.43,0,1.86,1.86,0,0,1,.4.15l.06,0,.51-1-.05,0A3,3,0,0,0,136.88,47.81Z" fill="#242424"></path><polygon points="151.46 44.34 150.13 44.34 147.54 51.19 144.96 44.34 143.62 44.34 142.47 53.92 143.75 53.92 144.64 46.79 147.11 53.45 147.97 53.45 150.44 46.79 151.33 53.92 152.62 53.92 151.47 44.39 151.46 44.34" fill="#242424"></polygon><path d="M159.94,48.85a2.45,2.45,0,0,0-.86-.77,3,3,0,0,0-1.39-.34,2.87,2.87,0,0,0-1.54.42,3,3,0,0,0-1.06,1.13,3.5,3.5,0,0,0-.38,1.63,3.4,3.4,0,0,0,.39,1.64,2.91,2.91,0,0,0,1.07,1.13,2.83,2.83,0,0,0,1.52.42,2.75,2.75,0,0,0,1.36-.35,2.72,2.72,0,0,0,.89-.8v1h1.24v-6h-1.24Zm-.22,1a2.39,2.39,0,0,1,0,2.17,2,2,0,0,1-.7.75,2.09,2.09,0,0,1-1,.27,2,2,0,0,1-1-.27,1.9,1.9,0,0,1-.71-.75,2.39,2.39,0,0,1,0-2.17,1.81,1.81,0,0,1,.71-.74,1.92,1.92,0,0,1,1-.27,2.08,2.08,0,0,1,1,.26A2,2,0,0,1,159.72,49.84Z" fill="#242424"></path><path d="M168.73,48.85a2.69,2.69,0,0,0-.87-.77,3,3,0,0,0-2.91.08,3.06,3.06,0,0,0-1.07,1.13,3.4,3.4,0,0,0-.39,1.64,3.29,3.29,0,0,0,.4,1.64A3,3,0,0,0,165,53.7a2.87,2.87,0,0,0,1.51.41,2.79,2.79,0,0,0,1.37-.35,2.93,2.93,0,0,0,.89-.79V54a2,2,0,0,1-.27,1.06,1.87,1.87,0,0,1-.74.68,2.32,2.32,0,0,1-1.08.24,2.6,2.6,0,0,1-1.27-.31,1.89,1.89,0,0,1-.81-.85l0-.05-1,.49,0,0a2.67,2.67,0,0,0,1.18,1.3,3.89,3.89,0,0,0,1.94.45,4.1,4.1,0,0,0,1.8-.36,2.63,2.63,0,0,0,1.13-1.06A3.24,3.24,0,0,0,170,54V47.93h-1.23Zm-.22,1a2.28,2.28,0,0,1,.26,1.09,2.21,2.21,0,0,1-.26,1.08,1.9,1.9,0,0,1-.71.75,2.09,2.09,0,0,1-1,.27,2,2,0,0,1-1-.27A1.9,1.9,0,0,1,165,52a2.21,2.21,0,0,1-.26-1.08,2.28,2.28,0,0,1,.26-1.09,1.81,1.81,0,0,1,.71-.74,2.1,2.1,0,0,1,2.06,0A1.81,1.81,0,0,1,168.51,49.84Z" fill="#242424"></path><path d="M177,48.13a3.34,3.34,0,0,0-1.64-.39,3.19,3.19,0,0,0-1.24.25,3,3,0,0,0-1,.69,3.28,3.28,0,0,0-.69,1,3.19,3.19,0,0,0-.24,1.24,3.07,3.07,0,0,0,.43,1.62,3.12,3.12,0,0,0,1.18,1.13,3.42,3.42,0,0,0,1.69.42,3.53,3.53,0,0,0,1.66-.39,2.91,2.91,0,0,0,1.17-1.11l0,0-.92-.48,0,0a2.19,2.19,0,0,1-.8.72,2.26,2.26,0,0,1-1.05.24,2.32,2.32,0,0,1-1.1-.26,1.9,1.9,0,0,1-.74-.72,2,2,0,0,1-.27-1h5v0a.86.86,0,0,1,0-.13v-.13a3.21,3.21,0,0,0-.39-1.6A2.92,2.92,0,0,0,177,48.13Zm-3.51,2a1.59,1.59,0,0,1,.32-.71,1.66,1.66,0,0,1,.66-.5,2.2,2.2,0,0,1,.9-.19,2.1,2.1,0,0,1,.88.19,1.78,1.78,0,0,1,.66.52,1.7,1.7,0,0,1,.33.69Z" fill="#242424"></path><path d="M185.08,48a2.34,2.34,0,0,0-1.21-.3,2.66,2.66,0,0,0-1.23.28,2.32,2.32,0,0,0-.68.54v-.63h-1.24v6H182V50.14a1.37,1.37,0,0,1,.18-.69,1.32,1.32,0,0,1,.52-.5,1.61,1.61,0,0,1,.82-.19,1.36,1.36,0,0,1,1.06.42,1.78,1.78,0,0,1,.38,1.22v3.52h1.24V50.18a2.9,2.9,0,0,0-.28-1.3A1.91,1.91,0,0,0,185.08,48Z" fill="#242424"></path><path d="M191.2,52.82a.83.83,0,0,1-.53.18.53.53,0,0,1-.45-.21,1.14,1.14,0,0,1-.16-.64V48.89h1.41v-1h-1.41v-2.2h-1.23v2.2h-.66v1h.66v3.33a2.15,2.15,0,0,0,.41,1.39,1.47,1.47,0,0,0,1.17.5A2.55,2.55,0,0,0,191,54a2,2,0,0,0,.53-.22l0,0-.33-1Z" fill="#242424"></path><path d="M199.54,49.27a3.1,3.1,0,0,0-1.21-1.12,3.64,3.64,0,0,0-1.72-.41,3.6,3.6,0,0,0-1.71.41,3.1,3.1,0,0,0-1.21,1.12,3.27,3.27,0,0,0,0,3.31,3.1,3.1,0,0,0,1.21,1.12,3.6,3.6,0,0,0,1.71.41,3.64,3.64,0,0,0,1.72-.41,3.1,3.1,0,0,0,1.21-1.12,3.27,3.27,0,0,0,0-3.31Zm-1.85,3.48a2.2,2.2,0,0,1-1.07.26,2.27,2.27,0,0,1-1.08-.26,2,2,0,0,1-.74-.74,2.32,2.32,0,0,1,0-2.17,2,2,0,0,1,.74-.74,2.27,2.27,0,0,1,1.08-.26,2.2,2.2,0,0,1,1.07.26,2.13,2.13,0,0,1,.75.74,2.32,2.32,0,0,1,0,2.17A2.13,2.13,0,0,1,197.69,52.75Z" fill="#242424"></path></svg>