<svg xmlns="http://www.w3.org/2000/svg" width="200" height="60" viewBox="0 0 200 60"><path d="M55.64,37.46a11.79,11.79,0,0,1-2.87-.36,4.53,4.53,0,0,1-1.7-1,3.39,3.39,0,0,1-.89-1.52,7.14,7.14,0,0,1-.27-2.06V17.07L54,16.35V31.74a3.74,3.74,0,0,0,.08,1,5.37,5.37,0,0,0,.27.71,1.61,1.61,0,0,0,.63.45,7.83,7.83,0,0,0,1.16.27Z" fill="#737373"></path><path d="M62.88,19a2.13,2.13,0,0,1-.72,1.7,2.33,2.33,0,0,1-1.69.63,2.48,2.48,0,0,1-1.7-.63,2.27,2.27,0,0,1-.72-1.7,2.16,2.16,0,0,1,.72-1.7,2.37,2.37,0,0,1,1.7-.62,2.51,2.51,0,0,1,1.69.62A2,2,0,0,1,62.88,19Zm-.36,18.16h-4V23.06h4Z" fill="#737373"></path><path d="M66.1,19.57l4-.63v4.12H75v3.31H70.13v4.92a4,4,0,0,0,.44,2c.27.53.9.71,1.79.71a6.66,6.66,0,0,0,1.34-.09A5.16,5.16,0,0,0,75,33.52l.53,3.13a16.71,16.71,0,0,1-1.61.54,7.92,7.92,0,0,1-2.14.18,7.62,7.62,0,0,1-2.69-.45,4.06,4.06,0,0,1-1.7-1.25,4.68,4.68,0,0,1-.89-1.88,10.64,10.64,0,0,1-.27-2.5Z" fill="#737373"></path><path d="M76.92,30.21a9.4,9.4,0,0,1,.54-3.3,6.65,6.65,0,0,1,3.67-3.76,5.88,5.88,0,0,1,2.5-.45,6.48,6.48,0,0,1,4.74,1.79,7.62,7.62,0,0,1,1.79,5.37v.8a1.75,1.75,0,0,1-.09.72H81a2.71,2.71,0,0,0,1.16,2,5.16,5.16,0,0,0,2.77.71,17.32,17.32,0,0,0,2.15-.18,6.71,6.71,0,0,0,1.7-.53l.54,3.22c-.18.08-.54.17-.9.35s-.71.18-1.16.27a7,7,0,0,1-1.43.18,8.68,8.68,0,0,1-1.52.09A9.07,9.07,0,0,1,81,36.92a6.82,6.82,0,0,1-2.33-1.52,5.54,5.54,0,0,1-1.34-2.32A9.59,9.59,0,0,1,76.92,30.21Zm9.39-1.52a3.81,3.81,0,0,0-.17-1,2.66,2.66,0,0,0-.45-.89,2,2,0,0,0-.81-.63,2.19,2.19,0,0,0-1.16-.27,2.45,2.45,0,0,0-1.16.27,2,2,0,0,0-.81.63,7,7,0,0,0-.53.89c-.09.36-.18.63-.27,1Z" fill="#8f8f8f"></path><path d="M98.84,27l2.77-3.93h4.11L100.8,30a27.5,27.5,0,0,1,3,3.84,21.25,21.25,0,0,1,2,3.4h-4.29a9.59,9.59,0,0,1-.54-1c-.17-.36-.44-.81-.71-1.25a5.61,5.61,0,0,0-.81-1.08,7.93,7.93,0,0,0-.89-.8,6.75,6.75,0,0,0-.81.8A6.05,6.05,0,0,0,97,35a8.37,8.37,0,0,0-.72,1.25c-.18.44-.44.8-.62,1.16h-4c.27-.45.54-1,.9-1.61a20.41,20.41,0,0,1,1.25-1.88c.45-.62.89-1.25,1.43-1.88s1-1.16,1.52-1.7c-.89-1.25-1.7-2.41-2.5-3.57s-1.61-2.33-2.42-3.4h4.29Z" fill="#8f8f8f"></path><path d="M108,19.48l4-.62V23h4.83v3.31H112V31.2a4,4,0,0,0,.44,2c.27.53.9.71,1.79.71a6.66,6.66,0,0,0,1.34-.09,5.16,5.16,0,0,0,1.26-.36l.53,3.14c-.44.17-1,.35-1.61.53a7.92,7.92,0,0,1-2.14.18,7.62,7.62,0,0,1-2.69-.45,4,4,0,0,1-1.7-1.25,4.68,4.68,0,0,1-.89-1.88,10.64,10.64,0,0,1-.27-2.5Z" fill="#8f8f8f"></path><path d="M118.78,30.21a9.4,9.4,0,0,1,.54-3.3A6.65,6.65,0,0,1,123,23.15a5.88,5.88,0,0,1,2.5-.45,6.48,6.48,0,0,1,4.74,1.79A7.58,7.58,0,0,1,132,29.86v.8a1.75,1.75,0,0,1-.09.72h-9a2.74,2.74,0,0,0,1.16,2,5.16,5.16,0,0,0,2.77.71,17.32,17.32,0,0,0,2.15-.18,6.71,6.71,0,0,0,1.7-.53l.54,3.22c-.18.08-.54.17-.9.35s-.71.18-1.16.27a7,7,0,0,1-1.43.18,8.68,8.68,0,0,1-1.52.09,9.11,9.11,0,0,1-3.31-.54,6.82,6.82,0,0,1-2.33-1.52,5.54,5.54,0,0,1-1.34-2.32A10.07,10.07,0,0,1,118.78,30.21Zm9.4-1.61a3.83,3.83,0,0,0-.18-1,2.66,2.66,0,0,0-.45-.89,2,2,0,0,0-.81-.63,2.19,2.19,0,0,0-1.16-.27,2.45,2.45,0,0,0-1.16.27,2,2,0,0,0-.81.63,7,7,0,0,0-.53.89c-.09.36-.18.63-.27,1Z" fill="#8f8f8f"></path><path d="M135.15,23.51c.72-.18,1.52-.36,2.6-.54a20.69,20.69,0,0,1,3.39-.27,8.9,8.9,0,0,1,3,.45A3.6,3.6,0,0,1,146,24.49a4.89,4.89,0,0,1,1,2.06,12,12,0,0,1,.27,2.59v8h-4V29.59a5.47,5.47,0,0,0-.53-2.77,2.09,2.09,0,0,0-1.88-.81h-.9c-.36,0-.62.09-.89.09V37h-4Z" fill="#8f8f8f"></path><path d="M154.92,34.24a5.27,5.27,0,0,0,1.52-.18.94.94,0,0,0,.45-.8.84.84,0,0,0-.63-.81,6.53,6.53,0,0,0-1.79-.8c-.62-.27-1.16-.45-1.7-.72a5.39,5.39,0,0,1-1.34-.89,3.6,3.6,0,0,1-.8-1.26,4.77,4.77,0,0,1-.27-1.7A3.73,3.73,0,0,1,151.79,24a6.17,6.17,0,0,1,4-1.16,11.29,11.29,0,0,1,2.51.27,13,13,0,0,1,1.88.54l-.72,3.13c-.45-.18-1-.27-1.52-.45a11.11,11.11,0,0,0-1.88-.18c-1.25,0-1.88.36-1.88,1.07a.81.81,0,0,0,.09.45c.09.09.18.27.36.36a3.91,3.91,0,0,0,.63.36,6.45,6.45,0,0,0,1.07.44,12.3,12.3,0,0,1,2.15,1,9.14,9.14,0,0,1,1.34,1,3.4,3.4,0,0,1,.71,1.25,4.18,4.18,0,0,1,.18,1.52,3.56,3.56,0,0,1-1.52,3.13,7.81,7.81,0,0,1-4.47,1.08,10.35,10.35,0,0,1-3.13-.36,6.22,6.22,0,0,1-1.7-.54l.63-3.22a17.84,17.84,0,0,0,2.05.63A19.85,19.85,0,0,1,154.92,34.24Z" fill="#8f8f8f"></path><path d="M168.25,18.86a2.12,2.12,0,0,1-.72,1.69,2.35,2.35,0,0,1-1.7.63,2.52,2.52,0,0,1-1.7-.63,2.29,2.29,0,0,1-.71-1.69,2.16,2.16,0,0,1,.71-1.7,2.37,2.37,0,0,1,1.7-.63,2.5,2.5,0,0,1,1.7.63A2.27,2.27,0,0,1,168.25,18.86Zm-.36,18.24h-4V23h4Z" fill="#8f8f8f"></path><path d="M184.79,30a10.83,10.83,0,0,1-.44,3,6.88,6.88,0,0,1-1.43,2.32,6.51,6.51,0,0,1-5,2.06,7.41,7.41,0,0,1-2.87-.54,6,6,0,0,1-2.14-1.52A6.58,6.58,0,0,1,171.47,33a8.83,8.83,0,0,1,0-6.08,6.63,6.63,0,0,1,1.43-2.33,6.54,6.54,0,0,1,2.23-1.52,7.4,7.4,0,0,1,5.55,0,6.3,6.3,0,0,1,2.15,1.52,6.93,6.93,0,0,1,1.43,2.33A8.61,8.61,0,0,1,184.79,30Zm-4,0a5.53,5.53,0,0,0-.72-3,2.44,2.44,0,0,0-2.14-1.07A2.56,2.56,0,0,0,175.76,27a4.82,4.82,0,0,0-.72,3,5.51,5.51,0,0,0,.72,2.95A2.45,2.45,0,0,0,177.91,34a2.55,2.55,0,0,0,2.14-1.07A5.51,5.51,0,0,0,180.77,30Z" fill="#8f8f8f"></path><path d="M187.92,23.42c.72-.18,1.53-.36,2.6-.54a20.72,20.72,0,0,1,3.4-.27,8.88,8.88,0,0,1,3,.45,3.67,3.67,0,0,1,1.88,1.34,5,5,0,0,1,1,2.06,12,12,0,0,1,.27,2.59v8h-4V29.5a5.36,5.36,0,0,0-.53-2.77,2.09,2.09,0,0,0-1.88-.81h-.89c-.36,0-.63.09-.9.09V36.92h-4Z" fill="#8f8f8f"></path><path d="M19.41,34.15l-7-4c-3-1.79-3-4.66,0-6.44l3.4-2,.45-.27c-1.34-.81-2.59-1.52-3.67-2.15L5.55,15.37C2.5,13.58,0,15,0,18.59v29c0,3.57,2.5,5,5.55,3.22l7-4c3-1.79,8.05-4.65,11.18-6.44l3.13-1.79c-.18-.09-.26-.18-.44-.27C24,36.83,21.29,35.31,19.41,34.15Z" fill="#8f8f8f"></path><path d="M37.48,9.19l-7,4c-3,1.79-8,4.65-11.18,6.44l-3.13,1.79c.18.09.27.18.45.27,2.5,1.43,5.18,3,7.06,4.11l7,4c3,1.79,3,4.65,0,6.44l-3.4,2-.45.27c1.35.81,2.6,1.52,3.67,2.15l7,4c3,1.79,5.54.36,5.54-3.22v-29C43.11,8.93,40.61,7.41,37.48,9.19Z" fill="#7b7b7b"></path><path d="M30.68,36.3c3-1.79,3-4.65,0-6.44l-7-4c-1.88-1.07-4.56-2.68-7.06-4.11-.18-.09-.27-.18-.45-.27l-.36.27-3.4,2c-3,1.78-3,4.65,0,6.44l7,4c1.88,1.07,4.56,2.68,7.07,4.11.17.09.26.18.44.27l.45-.27Z" fill="#737373"></path><path d="M54.65,43.18l-.09.54h-.89l-.27,1.07h1l-.18.54h-1l-.36,1.43h-.62l.35-1.43h-1l-.27,1.43h-.62L51,45.33h-.89l.09-.54h.89l.18-1.07h-1l.09-.54h1l.36-1.52h.63l-.18,1.52h1l.36-1.52h.62l-.35,1.52ZM53,43.72h-1l-.27,1.07h1Z" fill="#737373"></path><path d="M57.33,41.48V47.3h-.89V42.56l-.54.27a1.62,1.62,0,0,1-.62.18V42.2c.18-.09.27-.09.44-.18s.27-.09.45-.18.27-.18.45-.27.27-.17.45-.26h.26Z" fill="#737373"></path><path d="M60.82,47.12v-1a.45.45,0,0,0,.27.17c.09.09.27.09.36.18a.67.67,0,0,0,.45.09h.35a2.26,2.26,0,0,0,.9-.18.62.62,0,0,0,.27-.53c0-.18,0-.27-.09-.36l-.27-.27a2,2,0,0,0-.45-.27l-.53-.27a1.65,1.65,0,0,1-.54-.35,1.58,1.58,0,0,1-.45-.36,2,2,0,0,1-.27-.45v-.45a1.69,1.69,0,0,1,.18-.71,1.08,1.08,0,0,1,.45-.45,1.73,1.73,0,0,1,.71-.27,2.49,2.49,0,0,1,.81-.09,4.31,4.31,0,0,1,1.34.18v.9A2.31,2.31,0,0,0,63,42.29h-.45c-.18,0-.27.09-.36.09s-.17.18-.26.27-.09.18-.09.36a.53.53,0,0,0,.09.35c.09.09.09.18.26.27s.27.18.36.27l.54.27a1.88,1.88,0,0,1,.54.36,2.11,2.11,0,0,1,.44.35,2,2,0,0,1,.36.45,1.14,1.14,0,0,1,.09.54,1.65,1.65,0,0,1-.18.71,1.08,1.08,0,0,1-.45.45,5.37,5.37,0,0,1-.71.27,2.49,2.49,0,0,1-.81.09H62a.81.81,0,0,1-.45-.09c-.18,0-.27-.09-.45-.09S60.91,47.12,60.82,47.12Z" fill="#737373"></path><path d="M70.13,47.3h-1V44.79H66.46V47.3h-1V41.57h1V44h2.68V41.57h1Z" fill="#737373"></path><path d="M73.88,47.39a2.51,2.51,0,0,1-2-.81,2.77,2.77,0,0,1-.71-2,3.76,3.76,0,0,1,.71-2.24A2.32,2.32,0,0,1,74,41.48a2.62,2.62,0,0,1,2,.81,3.17,3.17,0,0,1,.71,2.06,3.48,3.48,0,0,1-.71,2.23A2.69,2.69,0,0,1,73.88,47.39Zm0-5a1.36,1.36,0,0,0-1.25.63,2,2,0,0,0-.45,1.52,2.56,2.56,0,0,0,.45,1.52,1.65,1.65,0,0,0,1.25.53,1.5,1.5,0,0,0,1.25-.53,2.07,2.07,0,0,0,.45-1.52,2.62,2.62,0,0,0-.45-1.61A1.48,1.48,0,0,0,73.88,42.38Z" fill="#737373"></path><path d="M78.62,45.24V47.3h-1V41.57h1.7a2.56,2.56,0,0,1,1.52.45,1.5,1.5,0,0,1,.54,1.25,1.83,1.83,0,0,1-.54,1.35,2.15,2.15,0,0,1-1.52.53h-.72Zm0-2.86v2.06h.63a1.17,1.17,0,0,0,.89-.27,1.14,1.14,0,0,0,.36-.81c0-.71-.36-1-1.16-1Z" fill="#737373"></path><path d="M83.36,45.24V47.3h-1V41.57h1.7A2.56,2.56,0,0,1,85.6,42a1.5,1.5,0,0,1,.54,1.25,1.83,1.83,0,0,1-.54,1.35,2.15,2.15,0,0,1-1.52.53h-.72Zm0-2.86v2.06H84a1.17,1.17,0,0,0,.89-.27,1.14,1.14,0,0,0,.36-.81c0-.71-.36-1-1.16-1Z" fill="#737373"></path><path d="M88.19,47.3h-1V41.57h1Z" fill="#737373"></path><path d="M94.45,47.3H93.38L90.7,43.09c-.09-.08-.09-.17-.18-.35h0V47.3h-.9V41.57H90.7l2.59,4.12c.09.18.18.27.18.36h0V41.57h.89V47.3Z" fill="#737373"></path><path d="M100.27,46.94a3.74,3.74,0,0,1-2,.45,2.76,2.76,0,0,1-2.86-2.86,2.67,2.67,0,0,1,.89-2.15,3.12,3.12,0,0,1,2.15-.9,4.3,4.3,0,0,1,1.61.27v1a3.07,3.07,0,0,0-1.61-.45,2.15,2.15,0,0,0-2.15,2.15A2.11,2.11,0,0,0,96.87,46a2,2,0,0,0,2.32.27V45H98v-.8h2.15v2.77Z" fill="#737373"></path><path d="M107.78,47.12a4.25,4.25,0,0,1-1.61.36,2.51,2.51,0,0,1-2-.81,2.77,2.77,0,0,1-.71-2.05,3.31,3.31,0,0,1,.8-2.24,2.91,2.91,0,0,1,2.15-.81,3,3,0,0,1,1.34.27v1a2,2,0,0,0-1.25-.36,1.86,1.86,0,0,0-1.52.62,2.34,2.34,0,0,0-.54,1.61,2.12,2.12,0,0,0,.54,1.53,1.91,1.91,0,0,0,1.43.53,2.61,2.61,0,0,0,1.43-.36v.72Z" fill="#737373"></path><path d="M113.51,47.3h-1.08l-.53-1.43h-2.24l-.54,1.43h-.89l2.15-5.73h1.07Zm-1.79-2.24-.81-2.23c0-.09-.09-.18-.09-.36h0c0,.18-.09.27-.09.36l-.8,2.23Z" fill="#737373"></path><path d="M118.69,47.3h-1.07l-.89-1.52a1.24,1.24,0,0,0-.27-.36l-.27-.27c-.09-.09-.18-.09-.27-.18h-.71V47.3h-1V41.57h1.88a1.75,1.75,0,0,1,.72.09,4.75,4.75,0,0,1,.62.27.9.9,0,0,1,.36.45,1.69,1.69,0,0,1,.18.71,1.14,1.14,0,0,1-.09.54,2,2,0,0,1-.27.45l-.36.36a1.24,1.24,0,0,1-.53.18h0c.09.08.18.08.26.17l.18.18s.18.18.18.27a1.24,1.24,0,0,1,.27.36Zm-3.39-4.92v1.88h.8a.81.81,0,0,0,.45-.09.68.68,0,0,0,.36-.18c.08-.09.17-.18.17-.27a.67.67,0,0,0,.09-.45.84.84,0,0,0-.26-.62,1,1,0,0,0-.72-.27Z" fill="#737373"></path><path d="M122.9,42.38h-1.61V47.3h-1V42.38h-1.61v-.81h4.21v.81Z" fill="#737373"></path><path d="M132.11,47.3h-1V43.63a4.67,4.67,0,0,1,.09-1.07h0c-.09.27-.09.45-.18.53l-1.7,4.3h-.63L127,43.18c-.09-.09-.09-.35-.18-.53h0v4.83h-.89V41.75h1.34l1.52,3.85a3.67,3.67,0,0,1,.18.63h0a2.15,2.15,0,0,1,.27-.63l1.52-3.76H132V47.3Z" fill="#737373"></path><path d="M134.44,47.3h-1V41.57h1Z" fill="#737373"></path><path d="M140.34,46.94a3.74,3.74,0,0,1-2,.45,2.76,2.76,0,0,1-2.86-2.86,2.67,2.67,0,0,1,.89-2.15,3.14,3.14,0,0,1,2.15-.9,4.3,4.3,0,0,1,1.61.27v1a3.07,3.07,0,0,0-1.61-.45,2.15,2.15,0,0,0-2.15,2.15,2.11,2.11,0,0,0,.54,1.52,1.86,1.86,0,0,0,1.34.53,1.9,1.9,0,0,0,1-.26V45H138.1v-.8h2.15v2.77Z" fill="#737373"></path><path d="M146,47.3H144.9L144,45.78a1.24,1.24,0,0,0-.27-.36l-.27-.27c-.09-.09-.18-.09-.27-.18h-.71V47.3h-1V41.57h1.88a1.75,1.75,0,0,1,.72.09,4.75,4.75,0,0,1,.62.27.9.9,0,0,1,.36.45,1.69,1.69,0,0,1,.18.71,1.14,1.14,0,0,1-.09.54,2,2,0,0,1-.27.45l-.36.36a1.24,1.24,0,0,1-.53.18h0c.09.08.18.08.27.17l.17.18s.18.18.18.27a1.24,1.24,0,0,1,.27.36Zm-3.48-4.92v1.88h.8a.81.81,0,0,0,.45-.09.68.68,0,0,0,.36-.18c.09-.09.18-.18.18-.27a.74.74,0,0,0,.08-.45.8.8,0,0,0-.26-.62,1,1,0,0,0-.72-.27Z" fill="#737373"></path><path d="M151.34,47.3h-1.07l-.54-1.43H147.5L147,47.3h-1.07L148,41.57h1.08Zm-1.88-2.24-.8-2.23c0-.09-.09-.18-.09-.36h0c0,.18-.09.27-.09.36l-.81,2.23Z" fill="#737373"></path><path d="M155.19,42.38h-1.61V47.3h-1V42.38H151v-.81h4.21v.81Z" fill="#737373"></path><path d="M157,47.3h-1V41.57h1Z" fill="#737373"></path><path d="M160.73,47.39a2.47,2.47,0,0,1-2-.81,3.15,3.15,0,0,1-.72-2,3.7,3.7,0,0,1,.72-2.24,2.67,2.67,0,0,1,2-.81,2.62,2.62,0,0,1,2,.81,2.76,2.76,0,0,1,.72,2.06,3.48,3.48,0,0,1-.72,2.23A2.83,2.83,0,0,1,160.73,47.39Zm.09-5a1.36,1.36,0,0,0-1.25.63,2,2,0,0,0-.45,1.52,2.56,2.56,0,0,0,.45,1.52,1.65,1.65,0,0,0,1.25.53,1.53,1.53,0,0,0,1.26-.53,2.11,2.11,0,0,0,.44-1.52,2.69,2.69,0,0,0-.44-1.61A1.63,1.63,0,0,0,160.82,42.38Z" fill="#737373"></path><path d="M169.41,47.3h-1.07l-2.69-4.21c-.09-.08-.09-.17-.18-.35h0V47.3h-.89V41.57h1.07l2.6,4.12c.09.18.18.27.18.36h0V41.57h.89V47.3Z" fill="#737373"></path><path d="M176.3,47.3h-3.22V41.57h3v.81H174V44h2v.8h-2v1.7h2.24v.81Z" fill="#737373"></path><path d="M181.66,47.3H180.5l-1.16-2.06c0-.09-.09-.18-.09-.27h0c0,.09-.09.18-.09.27L178,47.3h-1.17l1.88-2.86L177,41.57h1.17l1.07,2c.09.09.09.27.18.36h0c.09-.18.18-.27.18-.36l1.07-1.88h1.07L180,44.53Z" fill="#737373"></path><path d="M183.36,45.24V47.3h-1V41.57h1.7a2.56,2.56,0,0,1,1.52.45,1.5,1.5,0,0,1,.54,1.25,1.83,1.83,0,0,1-.54,1.35,2.15,2.15,0,0,1-1.52.53h-.72Zm0-2.86v2.06H184a1.17,1.17,0,0,0,.89-.27,1.14,1.14,0,0,0,.36-.81c0-.71-.36-1-1.16-1Z" fill="#737373"></path><path d="M190.43,47.3h-3.22V41.57h3v.81H188.1V44h2v.8h-2v1.7h2.24v.81Z" fill="#737373"></path><path d="M195.8,47.3h-1.08l-.89-1.52a1.24,1.24,0,0,0-.27-.36l-.27-.27c-.09-.09-.18-.09-.27-.18h-.71V47.3h-.9V41.57h1.88a1.75,1.75,0,0,1,.72.09,4.21,4.21,0,0,1,.62.27.9.9,0,0,1,.36.45,1.69,1.69,0,0,1,.18.71,1.14,1.14,0,0,1-.09.54,2,2,0,0,1-.27.45l-.36.36a1.2,1.2,0,0,1-.53.18h0c.09.08.18.08.27.17l.17.18s.18.18.18.27a1.24,1.24,0,0,1,.27.36Zm-3.49-4.92v1.88h.8a.81.81,0,0,0,.45-.09.68.68,0,0,0,.36-.18c.09-.09.18-.18.18-.27a.67.67,0,0,0,.09-.45.81.81,0,0,0-.27-.62,1,1,0,0,0-.72-.27Z" fill="#737373"></path><path d="M199.91,42.38H198.3V47.3h-1V42.38h-1.61v-.81h4.2v.81Z" fill="#737373"></path></svg>