<svg xmlns="http://www.w3.org/2000/svg" width="50" height="50" viewBox="0 0 50 50"><path d="M46.62,19.51l.05,1.36a19,19,0,0,1-19,19V34.43a13.46,13.46,0,0,0,9.59-4,13.15,13.15,0,0,0,1.34-1.56,10.31,10.31,0,0,1-1.48.11,9.49,9.49,0,0,1-9.49-9.86A9.59,9.59,0,0,1,36.76,10,9.49,9.49,0,0,1,46.62,19.51Z" fill="#f69435"></path><path d="M22.32,19.51l.05,1.36a19,19,0,0,1-19,19V34.43a13.42,13.42,0,0,0,9.58-4,12.37,12.37,0,0,0,1.35-1.56,10.34,10.34,0,0,1-1.49.11,9.5,9.5,0,1,1,9.5-9.49Z" fill="#f69435"></path></svg>